<?xml version="1.0" encoding="UTF-8" standalone="no"?><svg xmlns="http://www.w3.org/2000/svg" xmlns:xlink="http://www.w3.org/1999/xlink" fill="#000000" height="292.1" preserveAspectRatio="xMidYMid meet" version="1" viewBox="-0.2 -0.2 95.8 292.1" width="95.8" zoomAndPan="magnify"><g><g id="change1_2"><path d="M71.84,229.44c-0.72-2.88-3.48-4.21-5.98-5.27c-1.26-0.53-2.57-1.04-3.64-1.91c-1.34-1.1-1.81-2.71-1.91-4.38 c-0.12-1.92,0.19-3.84,0.43-5.74c0.3-2.32,0.61-4.64,0.92-6.96c0.6-4.62,1.13-9.26,1.31-13.92c0.18-4.6,0.01-9.22-0.85-13.75 c-0.83-4.35-3.03-8.81-2.72-13.3c0.15-2.16,0.86-4.24,1.38-6.32c0.54-2.14,0.95-4.31,1.21-6.51c0.52-4.36,0.48-8.83-0.1-13.19 c-0.64-4.84-2.13-9.41-3.62-14.05c-1.65-5.15-3.46-8.85,0.38-13.56c3.37-4.14,8.07-7.35,10.06-12.48c1.55-4,1.29-8.27,0.62-12.42 c-0.65-3.99-1.29-8.13-2.78-11.91c-2.87-7.29-9.43-11.21-16.34-14.09c-1.73-0.72-3.62-1.27-5.26-2.19 c-1.64-0.93-2.24-2.64-2.47-4.42c-0.55-4.32,0.59-8.59,0.84-12.89c0.25-4.28-0.14-9.15-3.29-12.38c-2.21-2.27-5.55-3.75-8.66-2.98 c-2.78-0.14-5.35,1.42-7.17,3.54c-2.5,2.92-2.86,6.93-2.33,10.6c0.63,4.3,2.5,8.25,3.42,12.47c0.41,1.85,0.76,3.95,0.27,5.82 c-0.5,1.89-2.19,2.78-3.73,3.76c-6.03,3.82-12.59,8.24-15,15.32c-1.35,3.97-1.44,8.13-1.41,12.28c0.03,4.1,0.04,8.34,1.51,12.23 c1.47,3.88,4.4,6.7,7.69,9.09c2.57,1.87,5.63,3.35,7.72,5.81c2.59,3.05,1.98,6.16,1.41,9.86c-0.67,4.31-1.22,8.72-1.24,13.09 c-0.02,4.34,0.53,8.65,1.54,12.87c1.04,4.34,2.8,8.27,4.66,12.3c0.95,2.08,1.54,4.11,1.59,6.41c0.04,2.33-0.33,4.65-0.48,6.97 c-0.29,4.52,0.07,9.03,0.89,13.48c1.69,9.12,5.18,17.66,7.74,26.53c0.53,1.83,1.01,3.97,0.36,5.83c-0.52,1.49-1.83,2.48-3.08,3.34 c-2.52,1.74-5.68,3.53-5.88,6.96c-0.14,2.43,3.24,2.59,3.34,0.14c0.04-1.05,0.93-1.91,1.69-2.52c1.14-0.92,2.4-1.69,3.56-2.59 c2.82-2.18,4.2-5.05,3.81-8.66c-0.46-4.28-2.33-8.51-3.66-12.57c-1.46-4.45-2.89-8.93-3.94-13.49c-1.03-4.49-1.69-9.08-1.66-13.69 c0.03-4.67,1.25-9.37,0.06-13.98c-0.54-2.1-1.58-4.01-2.49-5.96c-0.97-2.07-1.8-4.2-2.49-6.37c-1.35-4.22-2.17-8.57-2.43-13 c-0.15-2.52-0.1-5.04,0.12-7.56c0.22-2.47,0.65-4.94,0.71-7.42c0.14-5.57,0.56-8.97-2.8-13.49c-0.09-0.12-0.21-0.17-0.33-0.17 c-1.31-1.22-2.72-2.33-4.13-3.39c-2.48-1.85-5.15-3.55-7.01-6.08c-2.25-3.05-2.71-6.9-2.87-10.59c-0.16-3.79-0.3-7.69,0.29-11.45 c0.56-3.55,1.92-6.62,4.3-9.32c2.24-2.54,5.04-4.51,7.85-6.36c2.92-1.93,6.16-3.51,6.94-7.24c0.79-3.75-0.53-7.81-1.7-11.35 c-1.35-4.11-3.09-8.54-2.16-12.94c0.59-2.77,2.51-5.4,5.2-6.15c0.2,0.08,0.43,0.1,0.7,0.01c0.29-0.1,0.57-0.17,0.86-0.22 c0.27,0,0.55,0.02,0.84,0.06c0.28,0.04,0.5-0.03,0.68-0.14c2.31,0.2,4.4,1.74,5.61,3.78c1.99,3.35,1.81,7.43,1.37,11.16 c-0.47,3.98-1.32,8.08-0.67,12.09c0.27,1.7,0.82,3.41,1.97,4.72c1.17,1.35,2.78,2.04,4.41,2.69c6.12,2.47,13,5.18,16.2,11.4 c1.74,3.38,2.44,7.18,3.09,10.9c0.65,3.76,1.38,7.7,0.54,11.48c-0.79,3.55-3.33,6.3-5.76,8.87c-1.49,1.58-3,3.23-4.3,5.02 c-0.11,0.03-0.22,0.1-0.28,0.23c-0.08,0.16-0.15,0.32-0.22,0.49c-1.14,1.67-2.1,2.81-1.39,4.91c0.74,2.18,0.66,4.57,1.08,6.84 c0.79,4.33,2.51,8.41,3.36,12.73c0.87,4.4,1.2,8.95,0.9,13.43c-0.3,4.44-1.33,8.63-2.36,12.94c-0.52,2.16-0.74,4.35-0.44,6.56 c0.31,2.28,1.01,4.49,1.64,6.7c1.3,4.54,1.85,9.22,1.9,13.93c0.05,4.75-0.41,9.5-0.98,14.21c-0.54,4.47-1.37,8.95-1.65,13.44 c-0.27,4.18,0.64,8.01,4.44,10.26c1.35,0.8,2.83,1.35,4.24,2.04c1.05,0.51,2.47,1.22,2.76,2.48 C69.13,232.56,72.44,231.83,71.84,229.44z" fill="#9f7c50"/></g><g id="change2_10"><path d="M11.34,237.61c2.5,0.4,4.96,0.21,7.47,0.08c2.49-0.13,4.98-0.35,7.47-0.54c5.09-0.39,10.16-0.96,15.24-1.47 c5.1-0.51,10.18-1.11,15.27-1.67c5.08-0.56,10.13-1.3,15.21-1.92c2.88-0.35,5.78-0.57,8.66-0.78c1.36-0.1,2.72-0.2,4.08-0.3 c1.55-0.11,3.01-0.04,4.35-0.93c1-0.67,0.84-2.32-0.26-2.8c-1.26-0.54-2.4-0.35-3.73-0.19c-1.27,0.15-2.55,0.3-3.82,0.46 c-2.48,0.3-4.95,0.59-7.44,0.86c-5.07,0.55-10.17,0.8-15.25,1.36c-10.17,1.11-20.33,2.3-30.5,3.46c-2.88,0.33-5.76,0.71-8.64,1.09 c-2.8,0.36-5.61,0.66-8.28,1.61C10.36,236.21,10.49,237.47,11.34,237.61L11.34,237.61z" fill="#ee7601"/></g><g id="change2_11"><path d="M10.36,236.75c-0.46,2.75-0.41,5.83-0.17,8.6c0.09,1.07,1.14,1.99,2.23,1.85c19.77-2.6,39.59-4.8,59.45-6.59 c5.63-0.51,11.26-0.97,16.89-1.43c0.95-0.08,1.62-0.81,1.84-1.69c0.77-3.13,0.53-6.39-0.63-9.39c-0.94-2.44-4.74-1.01-3.81,1.45 c0.89,2.37,0.99,4.78,0.37,7.23c0.61-0.56,1.23-1.13,1.84-1.69c-19.88,1.5-39.73,3.54-59.52,5.92 c-5.61,0.67-11.21,1.38-16.82,2.12c0.74,0.62,1.49,1.23,2.23,1.85c-0.24-2.77-0.73-5.81-1.66-8.43 C12.22,235.45,10.54,235.62,10.36,236.75L10.36,236.75z" fill="#ee7601"/></g><g id="change2_4"><path d="M15.53,282.16c2.5,0.4,4.96,0.21,7.47,0.08c2.49-0.13,4.98-0.35,7.47-0.54c5.09-0.39,10.16-0.96,15.24-1.47 c5.1-0.51,10.18-1.11,15.27-1.67c5.08-0.56,10.13-1.3,15.21-1.92c2.88-0.35,5.78-0.57,8.66-0.78c1.36-0.1,2.72-0.2,4.08-0.3 c1.55-0.11,3.01-0.04,4.35-0.93c1-0.67,0.84-2.32-0.26-2.8c-1.26-0.54-2.4-0.35-3.73-0.19c-1.27,0.15-2.55,0.3-3.82,0.46 c-2.48,0.3-4.95,0.59-7.44,0.86c-5.07,0.55-10.17,0.8-15.25,1.36c-10.17,1.11-20.33,2.3-30.5,3.46c-2.88,0.33-5.76,0.71-8.64,1.09 c-2.8,0.36-5.61,0.66-8.28,1.61C14.56,280.76,14.68,282.02,15.53,282.16L15.53,282.16z" fill="#ee7601"/></g><g id="change2_6"><path d="M14.55,281.3c-0.46,2.75-0.41,5.83-0.17,8.6c0.09,1.07,1.14,1.99,2.23,1.85c19.77-2.6,39.59-4.8,59.45-6.59 c5.63-0.51,11.26-0.97,16.89-1.43c0.95-0.08,1.62-0.81,1.84-1.69c0.77-3.13,0.53-6.39-0.63-9.39c-0.94-2.44-4.74-1.01-3.81,1.45 c0.89,2.37,0.99,4.78,0.37,7.23c0.61-0.56,1.23-1.13,1.84-1.69c-19.88,1.5-39.73,3.54-59.52,5.92 c-5.61,0.67-11.21,1.38-16.82,2.12c0.74,0.62,1.49,1.23,2.23,1.85c-0.24-2.77-0.73-5.81-1.66-8.43 C16.41,279.99,14.74,280.17,14.55,281.3L14.55,281.3z" fill="#ee7601"/></g><g id="change2_3"><path d="M17.89,245.41c-0.35,1.33-0.31,2.87-0.34,4.24c-0.03,1.57-0.03,3.14-0.01,4.7c0.04,3.04,0.16,6.09,0.26,9.13 c0.09,2.96,0.19,5.92,0.29,8.88c0.06,1.56,0.1,3.13,0.17,4.69c0.07,1.6-0.08,3.18,1.16,4.35c0.69,0.65,1.88,0.46,2.45-0.23 c1.02-1.22,0.66-2.78,0.56-4.26c-0.11-1.56-0.25-3.11-0.37-4.67c-0.23-3.03-0.46-6.06-0.67-9.1c-0.2-2.95-0.37-5.9-0.58-8.85 c-0.11-1.56-0.25-3.11-0.4-4.66c-0.14-1.44-0.24-3.03-0.71-4.39C19.39,244.29,18.12,244.56,17.89,245.41L17.89,245.41z" fill="#ee7601"/></g><g id="change2_1"><path d="M82.2,239.35c-0.23,1.35-0.07,2.85,0.03,4.21c0.11,1.55,0.26,3.11,0.42,4.66c0.32,3.02,0.72,6.04,1.1,9.05 c0.37,2.93,0.73,5.87,1.11,8.8c0.2,1.55,0.39,3.1,0.6,4.64c0.21,1.49,0.18,3.32,1.45,4.32c0.69,0.54,1.91,0.57,2.45-0.23 c0.93-1.38,0.54-2.68,0.29-4.23c-0.25-1.54-0.54-3.08-0.8-4.62c-0.51-3-1.02-6.01-1.51-9.01c-0.47-2.92-0.92-5.85-1.4-8.78 c-0.25-1.54-0.54-3.09-0.83-4.63c-0.27-1.42-0.5-3.05-1.1-4.36C83.65,238.36,82.37,238.38,82.2,239.35L82.2,239.35z" fill="#ee7601"/></g><g id="change2_7"><path d="M36.95,18.31c0.47-2.92,0.82-5.84,0.99-8.8c0.09-1.49,0.2-2.99,0.2-4.49c-0.01-1.49,0.15-3.03-0.53-4.4 C37.2-0.2,36.22-0.2,35.75,0.56c-0.78,1.25-0.79,2.73-0.94,4.16c-0.16,1.51-0.19,3.02-0.25,4.53c-0.12,3-0.08,5.98,0.11,8.97 C34.74,19.52,36.74,19.6,36.95,18.31L36.95,18.31z" fill="#ee7601"/></g><g id="change2_9"><path d="M43.91,22.46c2.79-4.07,5.68-8.07,8.63-12.03c0.76-1.03,2.25-2.46,1.42-3.82c-0.47-0.77-1.41-1-2.21-0.59 c-0.62,0.32-1.08,1-1.49,1.54c-1.49,1.98-2.89,4.02-4.23,6.11c-1.54,2.41-2.96,4.87-4.28,7.42 C41.09,22.37,43.08,23.68,43.91,22.46L43.91,22.46z" fill="#ee7601"/></g><g id="change2_8"><path d="M49.12,31.51c0.7,0.02,1.35-0.36,1.99-0.63c0.62-0.26,1.23-0.56,1.83-0.86c1.26-0.62,2.52-1.22,3.76-1.88 c1.26-0.67,2.54-1.31,3.78-2.03c1.21-0.7,2.58-1.42,3.5-2.49c0.33-0.38,0.49-1.06,0.25-1.53c-0.06-0.12-0.12-0.24-0.19-0.35 c-0.25-0.44-0.91-0.71-1.39-0.63c-1.45,0.21-2.84,1-4.12,1.67c-1.27,0.66-2.5,1.39-3.74,2.09c-1.18,0.66-2.33,1.38-3.49,2.08 c-1.2,0.72-2.75,1.47-3.49,2.69C47.22,30.6,48.25,31.49,49.12,31.51L49.12,31.51z" fill="#ee7601"/></g><g id="change1_1"><path d="M1.55,83.17C0.3,87.08-0.22,91.09,0.08,95.2c0.28,3.89,1.19,8.44,3.58,11.61c0.79,1.05,2.27,0.14,1.95-1.04 c-0.49-1.8-1.24-3.51-1.75-5.31c-0.51-1.8-0.87-3.65-1.08-5.51c-0.43-3.73-0.18-7.53,0.66-11.18C3.69,82.68,1.9,82.09,1.55,83.17 L1.55,83.17z" fill="#9f7c50"/></g><g id="change1_3"><path d="M61.95,253.42c-2.33,0.31-4.67,0.62-7,0.94c-3.79-14.08-5.58,0.8-5.58,0.8c-18.11,1.38-2.26,6.11-2.26,6.11 c-0.92,3-4.73,16.71,6.46,4.31c0.85,0.84,1.74,1.61,2.77,2.22c2.5,1.79,5.51,3.27,3.63-1.69c0-0.01-0.01-0.01-0.01-0.02 c-0.46-1.21-1.2-2.8-2.32-4.86c0.71-0.7,1.44-1.37,2.21-2.01c1.25-1.03,2.96-1.83,3.78-3.28 C64.35,254.66,63.41,253.22,61.95,253.42z" fill="#9f7c50"/></g><g id="change2_2"><path d="M73.38,256.38c-0.11-0.13-0.21-0.22-0.36-0.3c-0.16-0.08-0.34-0.1-0.52-0.1c-0.11,0.01-0.23,0.03-0.33,0.07 c-0.02,0.01-0.03,0.01-0.05,0.02c-0.09,0.04-0.19,0.09-0.26,0.15c-0.17,0.14-0.28,0.26-0.38,0.46c-0.01,0.02-0.02,0.03-0.02,0.05 c-0.02,0.06-0.07,0.21-0.09,0.27c-0.04,0.17-0.02,0.29,0.02,0.45c0.01,0.05,0.02,0.09,0.03,0.14c0.04,0.08,0.09,0.17,0.13,0.25 c0.03,0.05,0.02,0.03,0.1,0.12c0.05,0.05,0.08,0.09,0.14,0.13c0.1,0.07,0.21,0.14,0.32,0.2c0.03,0.02,0.06,0.03,0.09,0.04 c0.12,0.05,0.25,0.09,0.37,0.12c0.04,0.01,0.07,0.01,0.11,0.02c0.11,0.01,0.23,0.03,0.35,0.01c0.11-0.02,0.23-0.04,0.33-0.08 c0.31-0.12,0.54-0.3,0.77-0.53c0.11-0.11,0.19-0.25,0.27-0.38c0.08-0.13,0.12-0.27,0.16-0.42c-0.32,0.22-0.64,0.45-0.96,0.67 c0.01,0,0.02,0,0.02,0c0.11,0,0.22,0.01,0.32,0.01c0.11-0.02,0.21-0.05,0.32-0.07c0.09-0.05,0.18-0.1,0.28-0.15 c0.13-0.09,0.24-0.2,0.31-0.34c0.07-0.08,0.11-0.18,0.13-0.28c0.05-0.1,0.06-0.2,0.05-0.31c0.02-0.11,0.01-0.22-0.03-0.32 c-0.02-0.16-0.08-0.3-0.19-0.43c-0.07-0.13-0.18-0.23-0.29-0.32c-0.05-0.04-0.13-0.08-0.16-0.1c-0.03-0.02-0.11-0.08-0.16-0.1 c-0.02-0.01-0.04-0.02-0.06-0.02c-0.12-0.05-0.26-0.09-0.39-0.12c-0.08-0.02-0.18-0.01-0.25-0.01c-0.09,0-0.17-0.02-0.26,0 c-0.15,0.03-0.3,0.06-0.45,0.11c-0.02,0.01-0.04,0.02-0.06,0.02c-0.14,0.06-0.28,0.14-0.41,0.22c-0.07,0.04-0.1,0.09-0.17,0.16 c-0.18,0.16-0.26,0.25-0.37,0.5c-0.07,0.14-0.11,0.3-0.14,0.46c-0.03,0.18-0.05,0.38-0.02,0.56c0.03,0.15,0.06,0.32,0.11,0.47 c0.05,0.13,0.12,0.25,0.2,0.37c0.09,0.1,0.18,0.2,0.28,0.3c0.11,0.07,0.23,0.14,0.34,0.22c0.13,0.04,0.27,0.08,0.4,0.13 c0.28,0.05,0.56,0.02,0.83-0.08c0.26-0.1,0.48-0.25,0.65-0.47c0.15-0.24,0.31-0.44,0.34-0.74c0.01-0.14,0.01-0.28,0.02-0.42 c-0.03-0.14-0.07-0.29-0.1-0.43c0.03,0.14,0.06,0.28,0.1,0.41c0-0.03-0.01-0.05-0.01-0.08c-0.01,0.14-0.01,0.28-0.02,0.43 c0-0.04,0.01-0.07,0.02-0.11c-0.04,0.13-0.08,0.26-0.12,0.39c0.01-0.02,0.02-0.05,0.03-0.07c0.04-0.13,0.08-0.26,0.12-0.4 c0.01-0.14,0.01-0.29,0.02-0.43c0-0.01,0-0.03,0-0.04c-0.01,0.14-0.01,0.28-0.02,0.42c0-0.04,0.01-0.09,0.02-0.13 c-0.04,0.12-0.08,0.25-0.12,0.37c0.02-0.06,0.04-0.11,0.07-0.16c-0.06,0.1-0.13,0.2-0.19,0.3c0.02-0.03,0.03-0.05,0.06-0.07 c-0.08,0.08-0.17,0.15-0.25,0.23c0.02-0.02,0.04-0.03,0.06-0.04c-0.1,0.05-0.19,0.1-0.29,0.16c0.02-0.01,0.04-0.02,0.06-0.02 c-0.11,0.02-0.21,0.05-0.32,0.07c0.01,0,0.02,0,0.03-0.01c-0.21-0.04-0.42-0.07-0.62-0.11c0.02,0.01,0.05,0.02,0.07,0.03 c-0.04-0.48-0.09-0.95-0.13-1.43c-0.04,0.03-0.08,0.06-0.12,0.08c0.07-0.04,0.13-0.07,0.2-0.11c-0.07,0.04-0.15,0.07-0.23,0.08 c0.08-0.02,0.17-0.04,0.25-0.06c-0.09,0.02-0.18,0.03-0.28,0.02c0.09,0,0.19,0.01,0.28,0.01c-0.06,0-0.12-0.01-0.18-0.03 c-0.16-0.04-0.32-0.02-0.48-0.03c0.1,0,0.2,0.01,0.3,0.01c-0.07,0-0.14-0.02-0.22-0.04c0.09,0.03,0.18,0.06,0.27,0.09 c-0.03-0.01-0.06-0.02-0.1-0.04c-0.11-0.05-0.22-0.09-0.35-0.12c0.17,0.08,0.34,0.16,0.5,0.23c0,0-0.01-0.01-0.01-0.01 c0.06,0.07,0.13,0.13,0.19,0.2c-0.01-0.01-0.02-0.03-0.03-0.04c0.04,0.08,0.09,0.16,0.13,0.24c-0.01-0.02-0.02-0.04-0.03-0.06 c0.02,0.09,0.04,0.18,0.06,0.26c-0.01-0.03-0.01-0.06-0.01-0.09c0,0.09-0.01,0.17-0.01,0.26c0-0.02,0.01-0.05,0.01-0.07 c-0.02,0.08-0.05,0.15-0.07,0.23c0.01-0.02,0.02-0.04,0.03-0.06c-0.04,0.06-0.08,0.13-0.12,0.19c0.05-0.08,0.1-0.16,0.15-0.24 c-0.04,0.06-0.08,0.12-0.11,0.18c0.01-0.01,0.02-0.02,0.03-0.03c-0.05,0.05-0.1,0.09-0.15,0.14c0.01-0.01,0.02-0.01,0.02-0.02 c0.15-0.11,0.28-0.3,0.31-0.49C73.53,256.77,73.51,256.53,73.38,256.38L73.38,256.38z" fill="#ee7601"/></g><g id="change2_5"><path d="M27.62,262.45c0.08,0.09,0.16,0.19,0.26,0.27c0.01,0.01,0.02,0.02,0.03,0.02c0.09,0.06,0.19,0.13,0.29,0.18 c0.13,0.08,0.29,0.12,0.44,0.15c0.03,0,0.05,0.01,0.08,0.01c0.12,0.01,0.25,0.02,0.37,0.01c0.02,0,0.03,0,0.05,0 c0.02,0,0.05-0.01,0.07-0.01c0.12-0.02,0.25-0.06,0.37-0.09c0.02,0,0.03-0.01,0.05-0.01c0.01,0,0.01,0,0.02-0.01 c0.06-0.02,0.26-0.13,0.32-0.17c0.01-0.01,0.02-0.01,0.03-0.02c0.03-0.02,0.05-0.03,0.07-0.05c0.11-0.09,0.21-0.19,0.31-0.29 c0.02-0.02,0.04-0.04,0.06-0.07c0.11-0.13,0.2-0.28,0.27-0.44c0.01-0.02,0.02-0.05,0.03-0.07c0.04-0.12,0.08-0.25,0.12-0.37 c0-0.02,0.01-0.03,0.01-0.05c0.03-0.14,0.02-0.35,0.02-0.46c0-0.03,0-0.06-0.01-0.09c-0.06-0.39-0.12-0.53-0.32-0.86 c-0.15-0.2-0.33-0.36-0.56-0.47c-0.24-0.11-0.48-0.15-0.74-0.13c-0.18,0.02-0.37,0.05-0.53,0.13c-0.13,0.06-0.26,0.13-0.39,0.21 c-0.02,0.01-0.05,0.03-0.07,0.05c-0.11,0.09-0.22,0.2-0.32,0.3c-0.02,0.02-0.04,0.04-0.06,0.06c-0.08,0.1-0.2,0.3-0.22,0.35 c-0.04,0.06-0.06,0.12-0.06,0.19c-0.02,0.06-0.04,0.13-0.06,0.19c-0.01,0.03-0.01,0.05-0.02,0.08c-0.05,0.37-0.02,0.69,0.09,1.05 c0.12,0.36,0.4,0.65,0.73,0.81c0.23,0.1,0.46,0.14,0.71,0.12c0.25-0.02,0.47-0.11,0.67-0.25c0.05-0.04,0.09-0.08,0.13-0.12 c0.14-0.11,0.25-0.25,0.32-0.42c0.11-0.25,0.09-0.26,0.12-0.41c0-0.03,0.01-0.06,0.02-0.08c-0.04,0.12-0.07,0.23-0.11,0.35 c0.02-0.05,0.04-0.11,0.07-0.15c-0.07,0.11-0.13,0.21-0.2,0.32c0.01-0.01,0.02-0.03,0.03-0.04c0.05-0.07,0.08-0.12,0.13-0.2 c0.05-0.08,0.08-0.13,0.12-0.2c0.01-0.02,0.02-0.03,0.03-0.05c-0.07,0.11-0.13,0.21-0.2,0.32c0.03-0.04,0.06-0.08,0.1-0.11 c-0.09,0.09-0.18,0.17-0.27,0.26c0.03-0.03,0.07-0.06,0.11-0.08c-0.11,0.06-0.22,0.12-0.33,0.18c0.03-0.02,0.07-0.03,0.1-0.04 c-0.56-0.17-1.12-0.34-1.68-0.51c0.02,0.03,0.05,0.06,0.06,0.09c-0.06-0.11-0.12-0.22-0.18-0.33c0.02,0.04,0.03,0.07,0.04,0.11 c-0.03-0.12-0.06-0.25-0.09-0.37c0.01,0.04,0.01,0.09,0.01,0.13c0-0.13,0.01-0.25,0.01-0.38c0,0.05-0.01,0.11-0.03,0.16 c0.04-0.11,0.07-0.23,0.11-0.34c-0.02,0.06-0.05,0.12-0.08,0.18c0.06-0.1,0.12-0.2,0.19-0.3c-0.04,0.06-0.08,0.11-0.13,0.16 c0.08-0.08,0.17-0.16,0.25-0.24c-0.1,0.09-0.2,0.18-0.29,0.28c-0.01,0.02-0.03,0.03-0.05,0.05c0.08-0.08,0.16-0.15,0.25-0.23 c-0.04,0.04-0.08,0.07-0.13,0.09c0.1-0.05,0.19-0.1,0.29-0.16c-0.04,0.02-0.08,0.04-0.12,0.05c0.11-0.02,0.22-0.05,0.32-0.07 c-0.04,0.01-0.08,0.01-0.12,0.01c0.11,0,0.22,0.01,0.32,0.01c-0.04,0-0.08-0.01-0.11-0.02c-0.1,0-0.21-0.01-0.31-0.01 c-0.1,0.02-0.2,0.05-0.31,0.07c-0.09,0.05-0.18,0.1-0.27,0.14c-0.13,0.09-0.23,0.2-0.3,0.33c-0.07,0.08-0.11,0.17-0.13,0.27 c-0.04,0.1-0.06,0.2-0.05,0.3c-0.02,0.11-0.01,0.21,0.03,0.31C27.47,262.19,27.53,262.33,27.62,262.45L27.62,262.45z" fill="#ee7601"/></g></g></svg>